<svg xmlns="http://www.w3.org/2000/svg" viewBox="0 0 20 4.44"><defs><style>.cls-1{fill:#fff;}</style></defs><g id="Layer_2" data-name="Layer 2"><g id="Layer_1-2" data-name="Layer 1"><g id="original-wordmark"><path id="path4" class="cls-1" d="M6.2,4.44V.09h.24V.77L6.52.68A1.2,1.2,0,0,1,7.59,0,1.28,1.28,0,0,1,8.83.68a2.07,2.07,0,0,1,.05,1.95,1.34,1.34,0,0,1-1.47.71,1.2,1.2,0,0,1-1-.63V4.44Zm.24-2.81c0,.21,0,.36.06.51a1.07,1.07,0,0,0,1,1,1.11,1.11,0,0,0,1.22-.7,1.85,1.85,0,0,0,0-1.56A1.1,1.1,0,0,0,7.51.23a1.08,1.08,0,0,0-1,.79A6,6,0,0,0,6.44,1.63Z"/><path id="path6" class="cls-1" d="M13.94,2.22a1.27,1.27,0,0,1-1.25,1.13A1.4,1.4,0,0,1,11.15,2a2.21,2.21,0,0,1,.2-1.21A1.35,1.35,0,0,1,12.76,0,1.29,1.29,0,0,1,13.9,1a5.84,5.84,0,0,1,.11.73H11.4a1.25,1.25,0,0,0,.85,1.37,1.12,1.12,0,0,0,1.42-.74C13.71,2.2,13.8,2.18,13.94,2.22ZM11.4,1.5h2.34A1.19,1.19,0,0,0,12.64.23,1.22,1.22,0,0,0,11.4,1.5Z"/><path id="path8" class="cls-1" d="M14.42,2.24h.23a1,1,0,0,0,.54.79,1.43,1.43,0,0,0,1.23,0,.54.54,0,0,0,.32-.54A.5.5,0,0,0,16.4,2c-.25-.1-.52-.15-.77-.23a7.41,7.41,0,0,1-.79-.28.75.75,0,0,1,0-1.24,1.67,1.67,0,0,1,1.58,0,.83.83,0,0,1,.42.84h-.2s0,0,0,0c0-.62-.56-.81-1.12-.76a1.46,1.46,0,0,0-.49.15.49.49,0,0,0-.28.48.48.48,0,0,0,.33.45c.25.09.51.15.76.22l.62.16a.74.74,0,0,1,.5.66.77.77,0,0,1-.42.8A1.7,1.7,0,0,1,14.74,3,1.05,1.05,0,0,1,14.42,2.24Z"/><path id="path10" class="cls-1" d="M19.89,1h-.22s0-.05,0-.08a.7.7,0,0,0-.57-.67,1.42,1.42,0,0,0-.91,0,.55.55,0,0,0-.4.53.5.5,0,0,0,.39.51l1,.25a1.58,1.58,0,0,1,.31.09.81.81,0,0,1,.49,1,.78.78,0,0,1-.44.47,1.81,1.81,0,0,1-1.46,0,1,1,0,0,1-.6-1h.21a1.18,1.18,0,0,0,1.39.91,1.4,1.4,0,0,0,.4-.16.59.59,0,0,0,.31-.54.51.51,0,0,0-.34-.5c-.25-.09-.52-.14-.78-.22a7.41,7.41,0,0,1-.79-.28.75.75,0,0,1,0-1.23,1.63,1.63,0,0,1,1.6,0A.83.83,0,0,1,19.89,1Z"/><path id="path12" class="cls-1" d="M5.81,3.27a.38.38,0,0,1-.46-.18c-.26-.39-.55-.76-.83-1.15L4.4,1.78c-.33.45-.67.87-1,1.32A.37.37,0,0,1,3,3.27L4.24,1.6,3.08.09a.4.4,0,0,1,.46.16c.27.39.57.77.87,1.17C4.71,1,5,.65,5.28.26A.33.33,0,0,1,5.71.1L5.26.69c-.2.27-.4.53-.61.79a.16.16,0,0,0,0,.23h0Z"/><path id="path14" class="cls-1" d="M11.12.07V.3A1.17,1.17,0,0,0,9.87,1.39V3.27H9.64V.09h.22V.74A1.37,1.37,0,0,1,11.12.07Z"/><path id="path16" class="cls-1" d="M0,1.58a4.42,4.42,0,0,1,.1-.5A1.4,1.4,0,0,1,2.3.29a1.62,1.62,0,0,1,.56,1.44H.27A1.21,1.21,0,0,0,1.92,3.05a1,1,0,0,0,.62-.69c0-.16.13-.19.29-.14a1.27,1.27,0,0,1-.63.95A1.51,1.51,0,0,1,.43,3,1.63,1.63,0,0,1,0,2a.76.76,0,0,0,0-.16Zm.27-.07H2.61A1.17,1.17,0,0,0,1.5.24,1.21,1.21,0,0,0,.27,1.5Z"/></g></g></g></svg>