<svg xmlns="http://www.w3.org/2000/svg" viewBox="0 0 20 15"><defs><style>.cls-1{fill:#fff;}</style></defs><g id="Layer_2" data-name="Layer 2"><g id="Layer_1-2" data-name="Layer 1"><path class="cls-1" d="M17.22,8.62A4.2,4.2,0,0,0,15.41,9,3.87,3.87,0,0,1,15,8.1a2.49,2.49,0,0,1,0-.78,5.92,5.92,0,0,1,.24-.86s-.05-.2-.45-.21-.75.08-.79.18a4.42,4.42,0,0,0-.17.6,13.75,13.75,0,0,1-1.22,2.35,2.51,2.51,0,0,1-.28-.68,2.56,2.56,0,0,1,0-.79c.05-.34.25-.82.24-.85s0-.21-.44-.22-.75.08-.79.19-.09.35-.17.59S10,10,9.78,10.6c-.13.29-.24.52-.32.68h0l0,0-.11.21h0c-.05.1-.11.19-.14.19a1.25,1.25,0,0,1,0-.62c.15-.76.49-1.93.49-2s.06-.23-.23-.34a.38.38,0,0,0-.41.07s0,.07,0,.07.31-1.33-.61-1.33a2.76,2.76,0,0,0-1.77,1.2l-1.34.74-.65.35,0,0c-1.12-1.2-3.19-2-3.1-3.65,0-.58.23-2.12,4-4C8.55.7,11,1.12,11.42,2.05c.6,1.33-1.31,3.8-4.49,4.15a2.39,2.39,0,0,1-2-.5c-.17-.19-.2-.2-.26-.16s0,.22,0,.31a1.92,1.92,0,0,0,1.15.91,6.16,6.16,0,0,0,3.73-.37c1.92-.75,3.43-2.82,3-4.56S9.16-.51,6.39.48a13.79,13.79,0,0,0-4.7,2.7C.16,4.6-.08,5.84,0,6.36c.35,1.84,2.89,3,3.91,3.93l-.14.08c-.51.25-2.44,1.26-2.93,2.33s.09,2.08.51,2.2a3.14,3.14,0,0,0,3.37-1.36A3.35,3.35,0,0,0,5,10.43s0,0,0,0l.4-.24.73-.41a5.18,5.18,0,0,0-.26,1.33A2.79,2.79,0,0,0,6.49,13a.67.67,0,0,0,.48.16c.43,0,.63-.36.84-.79s.5-1.12.5-1.12S8,12.9,8.82,12.9c.29,0,.59-.38.72-.57h0a.11.11,0,0,0,0,0l0-.07h0c.12-.2.38-.67.77-1.44.5-1,1-2.23,1-2.23a5.75,5.75,0,0,0,.19.8,7.58,7.58,0,0,0,.42.94l-.19.25h0a4.79,4.79,0,0,1-.31.39,12.54,12.54,0,0,0-.94,1.17.34.34,0,0,0,.09.44.82.82,0,0,0,.49.08,2.59,2.59,0,0,0,.74-.17,2.74,2.74,0,0,0,.63-.33,1.41,1.41,0,0,0,.6-1.25,2.49,2.49,0,0,0-.23-.88L13,9.84a17.14,17.14,0,0,0,1.1-1.9,5.66,5.66,0,0,0,.19.81,5,5,0,0,0,.35.8,3.43,3.43,0,0,0-1.06,1.38c-.23.67-.05,1,.29,1a1,1,0,0,0,.53-.11,2.55,2.55,0,0,0,.67-.35,1.51,1.51,0,0,0,.75-1.24,2.42,2.42,0,0,0-.17-.73,3.93,3.93,0,0,1,1.94-.22c1.74.21,2.08,1.29,2,1.75a1.19,1.19,0,0,1-.55.78c-.12.08-.16.1-.15.16s.07.07.17.06A1.37,1.37,0,0,0,20,10.86C20.05,9.78,19,8.61,17.22,8.62ZM3.81,13.15c-.58.62-1.38.86-1.73.66s-.23-1.14.48-1.81a9.48,9.48,0,0,1,1.36-1l.36-.22,0,0h0l.08-.05A2.52,2.52,0,0,1,3.81,13.15ZM8,10.29c-.2.49-.62,1.74-.88,1.67s-.35-1,0-2a4.6,4.6,0,0,1,.68-1.25c.32-.35.66-.47.75-.32A6.91,6.91,0,0,1,8,10.29ZM11.48,12c-.09,0-.17.07-.21.05s0-.07,0-.07.44-.47.61-.68l.34-.44v0C12.26,11.42,11.72,11.79,11.48,12Zm2.67-.61c-.06-.05-.05-.19.16-.65a2.48,2.48,0,0,1,.59-.77,1.06,1.06,0,0,1,.06.34A1.11,1.11,0,0,1,14.15,11.34Z"/></g></g></svg>