<svg xmlns="http://www.w3.org/2000/svg" viewBox="0 0 17.78 20"><defs><style>.cls-1{fill:#fff;}</style></defs><g id="Layer_2" data-name="Layer 2"><g id="Layer_1-2" data-name="Layer 1"><path class="cls-1" d="M17,4.43,9.67.2A1.58,1.58,0,0,0,8.12.2L.77,4.43A1.52,1.52,0,0,0,0,5.76v8.46a1.55,1.55,0,0,0,.77,1.34L2.7,16.67a3.14,3.14,0,0,0,1.69.46,2,2,0,0,0,2.17-2.29V6.49a.21.21,0,0,0-.21-.21H5.42a.21.21,0,0,0-.21.21v8.34c0,.65-.67,1.29-1.76.75l-2-1.16a.23.23,0,0,1-.11-.2V5.76a.23.23,0,0,1,.11-.2L8.78,1.34a.24.24,0,0,1,.23,0l7.34,4.22a.25.25,0,0,1,.11.21v8.45a.23.23,0,0,1-.11.2L9,18.65a.24.24,0,0,1-.23,0L6.89,17.54a.17.17,0,0,0-.18,0A4.72,4.72,0,0,1,5.6,18c-.12,0-.3.11.07.32l2.45,1.44a1.51,1.51,0,0,0,.77.21h0a1.55,1.55,0,0,0,.78-.21L17,15.56a1.57,1.57,0,0,0,.77-1.34V5.77A1.56,1.56,0,0,0,17,4.43Z"/><path class="cls-1" d="M11.16,12.89c-1.95,0-2.37-.49-2.52-1.46a.2.2,0,0,0-.2-.17H7.49a.21.21,0,0,0-.22.21c0,1.23.68,2.7,3.89,2.7h0c2.33,0,3.66-.91,3.66-2.51s-1.07-2-3.33-2.3S9,8.91,9,8.38s.2-1,1.89-1c1.51,0,2.06.32,2.29,1.34a.22.22,0,0,0,.21.16h1a.2.2,0,0,0,.16-.07.23.23,0,0,0,.06-.16c-.15-1.75-1.32-2.56-3.67-2.56-2.09,0-3.34.88-3.34,2.36s1.24,2,3.25,2.24c2.41.24,2.59.59,2.59,1.06C13.36,12.54,12.71,12.89,11.16,12.89Z"/></g></g></svg>