<svg xmlns="http://www.w3.org/2000/svg" viewBox="0 0 20 19.5"><defs><style>.cls-1{fill:#fff;}</style></defs><g id="Layer_2" data-name="Layer 2"><g id="Layer_1-2" data-name="Layer 1"><path class="cls-1" d="M8.75,8.66l-.24-.77c-.09-.26-.16-.5-.23-.74S8.16,6.7,8.1,6.5h0A8,8,0,0,1,7.8,7.57c-.13.4-.25.82-.38,1.24s-.25.81-.37,1.16H9.17c-.05-.17-.12-.38-.2-.59S8.82,8.91,8.75,8.66Z"/><path class="cls-1" d="M16.46,0H3.54A3.53,3.53,0,0,0,0,3.54V16A3.53,3.53,0,0,0,3.54,19.5H16.46A3.53,3.53,0,0,0,20,16V3.54A3.53,3.53,0,0,0,16.46,0ZM12.22,13.74H10.48a.12.12,0,0,1-.13-.09l-.68-2H6.57l-.64,1.95a.13.13,0,0,1-.15.12H4.21q-.13,0-.09-.15L6.8,5.87c0-.09,0-.18.08-.28a2.41,2.41,0,0,0,0-.54S7,5,7,5H9.16c.06,0,.1,0,.11.06l3,8.59C12.33,13.7,12.31,13.74,12.22,13.74Zm2.88-.09c0,.09,0,.13-.11.13H13.36a.12.12,0,0,1-.13-.13V7.23a.1.1,0,0,1,.11-.11H15a.1.1,0,0,1,.11.11Zm-.18-7.53a1,1,0,0,1-.75.3,1,1,0,0,1-1-1.06,1,1,0,0,1,.3-.74,1,1,0,0,1,.74-.3,1,1,0,0,1,.76.3,1.1,1.1,0,0,1,.28.74A1.07,1.07,0,0,1,14.92,6.12Z"/></g></g></svg>