<svg xmlns="http://www.w3.org/2000/svg" viewBox="0 0 56.57 56.57"><defs><style>.cls-1{fill:#00001a;}.cls-2{fill:#fff;}.cls-3{fill:#78ffd6;}</style></defs><g id="Layer_2" data-name="Layer 2"><g id="Layer_1-2" data-name="Layer 1"><rect class="cls-1" x="8.28" y="8.28" width="40" height="40" transform="translate(68.28 28.28) rotate(135)"/><g id="Layer_2-2" data-name="Layer 2"><g id="Layer_1-2-2" data-name="Layer 1-2"><polygon class="cls-2" points="24.19 20.69 25.78 22.28 24.19 23.87 24.19 22.69 22.78 21.28 22.78 27.28 27.78 22.28 22.78 17.29 22.78 19.28 24.19 20.69"/><polygon class="cls-2" points="28.78 25.28 25.78 28.28 28.78 31.28 31.08 28.99 28.48 28.99 27.78 28.28 28.48 27.58 33.07 27.58 33.78 28.28 28.78 33.28 23.79 28.28 28.78 23.29 31.66 26.17 29.67 26.17 28.78 25.28"/><polygon class="cls-2" points="22.78 29.29 22.78 35.29 24.19 33.88 24.19 32.69 25.78 34.28 22.78 37.28 22.78 41.87 22.78 43.28 24.19 41.87 24.19 37.87 27.78 34.28 22.78 29.29"/><polygon class="cls-3" points="22.78 15.28 35.79 28.28 25.6 38.47 25.6 40.46 37.78 28.28 22.78 13.28 22.78 15.28"/></g></g></g></g></svg>