<svg xmlns="http://www.w3.org/2000/svg" viewBox="0 0 30 30"><defs><style>.cls-1{fill:#fff;}.cls-2{fill:#78ffd6;}.cls-3{fill:none;}</style></defs><g id="Layer_2" data-name="Layer 2"><g id="Layer_1-2" data-name="Layer 1"><g id="Layer_2-2" data-name="Layer 2"><g id="Layer_1-2-2" data-name="Layer 1-2"><polygon class="cls-1" points="10.94 9.94 12 11 10.94 12.06 10.94 11.27 10 10.33 10 14.33 13.33 11 10 7.67 10 9 10.94 9.94"/><polygon class="cls-1" points="14 13 12 15 14 17 15.53 15.47 13.8 15.47 13.33 15 13.8 14.53 16.86 14.53 17.33 15 14 18.33 10.67 15 14 11.67 15.92 13.59 14.59 13.59 14 13"/><polygon class="cls-1" points="10 15.67 10 19.67 10.94 18.73 10.94 17.94 12 19 10 21 10 24.06 10 25 10.94 24.06 10.94 21.39 13.33 19 10 15.67"/><polygon class="cls-2" points="10 6.33 18.67 15 11.88 21.79 11.88 23.12 20 15 10 5 10 6.33"/></g></g><rect class="cls-3" width="30" height="30"/></g></g></svg>