<svg xmlns="http://www.w3.org/2000/svg" viewBox="0 0 20.57 20"><defs><style>.cls-1{fill:#fff;fill-rule:evenodd;}</style></defs><g id="Layer_2" data-name="Layer 2"><g id="Layer_1-2" data-name="Layer 1"><path class="cls-1" d="M10.29,0A10.25,10.25,0,0,0,7,20c.52.09.71-.22.71-.49s0-1,0-1.91c-2.59.48-3.26-.62-3.46-1.2a3.7,3.7,0,0,0-1.06-1.45c-.36-.19-.87-.67,0-.68A2.05,2.05,0,0,1,4.78,15.3a2.21,2.21,0,0,0,3,.85,2.15,2.15,0,0,1,.65-1.37c-2.28-.26-4.68-1.14-4.68-5.07A4,4,0,0,1,4.81,7a3.72,3.72,0,0,1,.1-2.72s.86-.27,2.83,1a9.88,9.88,0,0,1,5.14,0c2-1.33,2.83-1,2.83-1A3.62,3.62,0,0,1,15.81,7a4,4,0,0,1,1.06,2.75c0,3.94-2.41,4.81-4.69,5.07a2.42,2.42,0,0,1,.69,1.89c0,1.38,0,2.48,0,2.82s.19.59.7.49A10.25,10.25,0,0,0,10.29,0Z"/></g></g></svg>