<svg xmlns="http://www.w3.org/2000/svg" viewBox="0 0 20 17.78"><defs><style>.cls-1{fill:#fff;}</style></defs><g id="Layer_2" data-name="Layer 2"><g id="Layer_1-2" data-name="Layer 1"><circle class="cls-1" cx="10" cy="8.87" r="1.79"/><path class="cls-1" d="M16.44,5.76l-.64-.2c0-.15.07-.3.1-.44C16.4,2.72,16,.84,15,.23s-2.7,0-4.47,1.52c-.17.15-.34.3-.5.46L9.68,1.9C7.84.27,6-.36,5,.25S3.61,2.58,4.06,4.89c0,.21.1.43.15.66l-.74.23C1.3,6.54,0,7.69,0,8.87s1.4,2.46,3.66,3.24l.54.16c-.06.24-.11.48-.16.72-.43,2.26-.07,4,1,4.54a1.9,1.9,0,0,0,1,.24A6.15,6.15,0,0,0,9.62,16L10,15.6c.18.17.36.34.54.49a5.89,5.89,0,0,0,3.47,1.69,1.8,1.8,0,0,0,.94-.24c1.07-.61,1.44-2.44,1-4.78q0-.26-.12-.54l.38-.11c2.33-.77,3.78-2,3.78-3.24S18.67,6.53,16.44,5.76ZM14.07.86a1,1,0,0,1,.48.11c.58.33,1,1.71.51,4,0,.13-.06.26-.09.4a21,21,0,0,0-2.67-.42,20,20,0,0,0-1.69-2.11,6,6,0,0,1,.46-.42A5.24,5.24,0,0,1,14.07.86ZM12.79,10.5c-.31.54-.63,1.06-1,1.54-.59,0-1.2.07-1.83.07s-1.23,0-1.81-.06c-.34-.5-.67-1-1-1.55s-.59-1.07-.85-1.61c.26-.54.54-1.08.85-1.61s.63-1,1-1.54c.6,0,1.21-.07,1.82-.07s1.23,0,1.82.07c.33.49.66,1,1,1.54s.6,1.08.86,1.6C13.39,9.41,13.1,10,12.79,10.5Zm1.32-.64a17.82,17.82,0,0,1,.67,1.76c-.58.13-1.2.24-1.86.32.2-.33.41-.67.61-1S13.93,10.22,14.11,9.86ZM10,14.37a17.41,17.41,0,0,1-1.2-1.43L10,13c.41,0,.81,0,1.21,0A16.54,16.54,0,0,1,10,14.37ZM7.1,12c-.65-.07-1.27-.17-1.84-.29.18-.57.4-1.16.65-1.76.18.34.36.69.56,1ZM5.91,7.89c-.25-.59-.46-1.17-.64-1.73.57-.12,1.18-.23,1.81-.31-.21.33-.41.66-.61,1h0C6.27,7.2,6.09,7.54,5.91,7.89ZM10,3.43a15.83,15.83,0,0,1,1.17,1.42c-.39,0-.78,0-1.18,0h0q-.6,0-1.17,0A17.09,17.09,0,0,1,10,3.43Zm3.52,3.42c-.2-.34-.4-.67-.61-1,.63.08,1.25.19,1.82.32-.17.55-.39,1.13-.64,1.72C13.92,7.55,13.73,7.2,13.53,6.85ZM4.9,4.72C4.49,2.6,4.87,1.3,5.4,1A1.07,1.07,0,0,1,5.91.88a5.49,5.49,0,0,1,3.2,1.66l.3.28a20.84,20.84,0,0,0-1.7,2.11A19.4,19.4,0,0,0,5,5.34C5,5.13,4.94,4.92,4.9,4.72Zm-1,6.58C1.82,10.58.85,9.53.85,8.87s.9-1.59,2.9-2.28l.69-.22a19.46,19.46,0,0,0,1,2.52,20.61,20.61,0,0,0-1,2.56Zm5.13,4C7.37,16.81,6,17.13,5.42,16.79s-.93-1.56-.54-3.64c0-.22.09-.44.15-.67a20.19,20.19,0,0,0,2.69.39A21.1,21.1,0,0,0,9.44,15Zm6.07-2.41c.43,2.19,0,3.54-.56,3.87s-1.83,0-3.44-1.35l-.5-.46a20.83,20.83,0,0,0,1.68-2.13,20.42,20.42,0,0,0,2.7-.42ZM16,11.3l-.34.1a19.89,19.89,0,0,0-1-2.52,20.41,20.41,0,0,0,1-2.5l.6.19c2,.7,3,1.69,3,2.3S18.14,10.57,16,11.3Z"/></g></g></svg>