<svg xmlns="http://www.w3.org/2000/svg" viewBox="0 0 20 20"><defs><style>.cls-1{fill:#fff;}</style></defs><g id="Layer_2" data-name="Layer 2"><g id="Layer_1-2" data-name="Layer 1"><path class="cls-1" d="M17.07,2.93A10,10,0,1,0,2.93,17.07,9.93,9.93,0,0,0,10,20h0A10,10,0,0,0,17.07,2.93ZM3.31,3.31A9.42,9.42,0,0,1,8.61.64,13.79,13.79,0,0,0,5.43,5.77a5.94,5.94,0,0,1-2.58-2C3,3.64,3.15,3.47,3.31,3.31Zm-.82.93A6.61,6.61,0,0,0,5.26,6.3a12.85,12.85,0,0,0-.53,3.43H.54A9.45,9.45,0,0,1,2.49,4.24Zm-1.95,6H4.73a12.85,12.85,0,0,0,.53,3.43,6.61,6.61,0,0,0-2.77,2.06A9.45,9.45,0,0,1,.54,10.27Zm2.77,6.42c-.16-.16-.31-.33-.46-.5a5.94,5.94,0,0,1,2.58-2,13.75,13.75,0,0,0,3.18,5.13A9.42,9.42,0,0,1,3.31,16.69Zm6.42,2.77H9.5A12.91,12.91,0,0,1,5.93,14a11.9,11.9,0,0,1,3.8-.63Zm0-6.6a12.11,12.11,0,0,0-4,.65,12.38,12.38,0,0,1-.49-3.24H9.73Zm0-3.13H5.27a12.38,12.38,0,0,1,.49-3.24,12.11,12.11,0,0,0,4,.65Zm0-3.13A12,12,0,0,1,5.93,6,12.91,12.91,0,0,1,9.5.55h.23Zm9.73,3.13H15.27a12.85,12.85,0,0,0-.53-3.43,6.61,6.61,0,0,0,2.77-2.06A9.45,9.45,0,0,1,19.46,9.73ZM16.69,3.31c.16.16.31.33.46.5a5.94,5.94,0,0,1-2.58,2A13.79,13.79,0,0,0,11.39.64,9.42,9.42,0,0,1,16.69,3.31ZM10.27.54h.23A12.91,12.91,0,0,1,14.07,6a12,12,0,0,1-3.8.63Zm0,6.6a12,12,0,0,0,4-.65,12,12,0,0,1,.5,3.24H10.27Zm0,3.13h4.46a12,12,0,0,1-.5,3.24,12,12,0,0,0-4-.65Zm.23,9.18h-.23V13.4a12,12,0,0,1,3.8.63A12.91,12.91,0,0,1,10.5,19.45Zm6.19-2.76a9.42,9.42,0,0,1-5.3,2.67,13.79,13.79,0,0,0,3.18-5.13,5.94,5.94,0,0,1,2.58,2C17,16.36,16.85,16.53,16.69,16.69Zm.82-.93a6.61,6.61,0,0,0-2.77-2.06,12.85,12.85,0,0,0,.53-3.43h4.19A9.45,9.45,0,0,1,17.51,15.76Z"/></g></g></svg>