<svg xmlns="http://www.w3.org/2000/svg" viewBox="0 0 20 20"><defs><style>.cls-1{fill:#fff;}</style></defs><g id="Layer_2" data-name="Layer 2"><g id="Layer_1-2" data-name="Layer 1"><path class="cls-1" d="M17,17h-3V12.4c0-1.11,0-2.53-1.54-2.53s-1.78,1.2-1.78,2.45V17h-3V7.5h2.85V8.8h0a3.13,3.13,0,0,1,2.81-1.54c3,0,3.55,2,3.55,4.55ZM4.45,6.19h0A1.72,1.72,0,1,1,6.17,4.47h0A1.73,1.73,0,0,1,4.45,6.19M5.93,17H3V7.5h3ZM18.52,0h-17A1.47,1.47,0,0,0,0,1.44V18.56A1.47,1.47,0,0,0,1.48,20h17A1.47,1.47,0,0,0,20,18.56V1.44A1.47,1.47,0,0,0,18.52,0"/></g></g></svg>