<svg xmlns="http://www.w3.org/2000/svg" viewBox="0 0 20 20"><defs><style>.cls-1{fill:#fff;}</style></defs><g id="Layer_2" data-name="Layer 2"><g id="Layer_1-2" data-name="Layer 1"><path class="cls-1" d="M0,0V20H20V0ZM10.89,15.6a2.55,2.55,0,0,1-2.8,2.83,2.91,2.91,0,0,1-2.82-1.72l1.53-.92c.29.52.56,1,1.21,1s1-.24,1-1.18V9.18h1.88Zm4.44,2.83a3.61,3.61,0,0,1-3.42-1.92l1.52-.88a2.07,2.07,0,0,0,1.86,1.14c.78,0,1.28-.39,1.28-.93s-.52-.87-1.37-1.25l-.47-.2c-1.36-.58-2.26-1.3-2.26-2.83a2.51,2.51,0,0,1,2.75-2.48,2.78,2.78,0,0,1,2.68,1.5l-1.47.94a1.28,1.28,0,0,0-1.21-.81.82.82,0,0,0-.9.81c0,.56.35.79,1.16,1.14l.47.2c1.6.69,2.5,1.39,2.5,3S17.12,18.43,15.33,18.43Z"/></g></g></svg>