<svg xmlns="http://www.w3.org/2000/svg" viewBox="0 0 8.89 20"><defs><style>.cls-1{fill:#fff;fill-rule:evenodd;}</style></defs><g id="Layer_2" data-name="Layer 2"><g id="Layer_1-2" data-name="Layer 1"><path class="cls-1" d="M8.72,7.94C7.68,3.3,5.22,1.78,5,1.19A6.13,6.13,0,0,1,4.37.05v0a.46.46,0,0,0,0-.09,1.22,1.22,0,0,1-.42,1A11.07,11.07,0,0,0,0,9.3a10,10,0,0,0,4,8.2,7.18,7.18,0,0,1,.33,2.32L4.9,20a9.65,9.65,0,0,1,0-2.1,1.29,1.29,0,0,1,.27-.55,7.29,7.29,0,0,0,.64-.53h0A9.56,9.56,0,0,0,8.72,7.94Z"/></g></g></svg>