<svg xmlns="http://www.w3.org/2000/svg" viewBox="0 0 10 20"><defs><style>.cls-1{fill:#fff;}.cls-2{fill:#78ffd6;}</style></defs><g id="Layer_2" data-name="Layer 2"><g id="Layer_1-2" data-name="Layer 1"><polygon class="cls-1" points="0.94 4.94 2 6 0.94 7.06 0.94 6.27 0 5.33 0 9.33 3.33 6 0 2.67 0 4 0.94 4.94"/><polygon class="cls-1" points="4 8 2 10 4 12 5.53 10.47 3.8 10.47 3.33 10 3.8 9.53 6.86 9.53 7.33 10 4 13.33 0.67 10 4 6.67 5.92 8.59 4.59 8.59 4 8"/><polygon class="cls-1" points="0 10.67 0 14.67 0.94 13.73 0.94 12.94 2 14 0 16 0 19.06 0 20 0.94 19.06 0.94 16.39 3.33 14 0 10.67"/><polygon class="cls-2" points="0 1.33 8.67 10 1.88 16.79 1.88 18.12 10 10 0 0 0 1.33"/></g></g></svg>