<svg xmlns="http://www.w3.org/2000/svg"
    xmlns:xlink="http://www.w3.org/1999/xlink">
    <defs>
        <symbol id="icon-arrow" viewBox="0 0 20 20">
            <polygon points="18.38 8.38 11.15 15.6 11.15 0 8.85 0 8.85 15.6 1.62 8.38 0 10 10 20 20 10 18.38 8.38"/>
        </symbol>
        <symbol id="icon-home" viewBox="0 0 20 19.72">
            <path d="M10.5859 0.585785L20.5859 10.5858H16.7561V19.841H12.437V14.9049H8.11788V19.841H3.79879V10.5858H0.585938L10.5859 0.585785ZM2.07554 9.96877H4.4158V19.224H7.50087V14.2879H13.054V19.224H16.1391V9.96877H19.0963L10.5859 1.45837L2.07554 9.96877Z"/>
        </symbol>
        <symbol id="icon-globe" viewBox="0 0 20 20">
            <path d="M17.07,2.93A10,10,0,1,0,2.93,17.07,9.93,9.93,0,0,0,10,20h0A10,10,0,0,0,17.07,2.93ZM3.38,3.39A9.32,9.32,0,0,1,8.45.77a13.34,13.34,0,0,0-3,4.94A5.73,5.73,0,0,1,3,3.84C3.09,3.69,3.24,3.53,3.38,3.39Zm-.85,1a6.52,6.52,0,0,0,2.68,2A13.08,13.08,0,0,0,4.7,9.68h-4A9.31,9.31,0,0,1,2.53,4.36Zm0,11.28A9.31,9.31,0,0,1,.65,10.32H4.7a13.08,13.08,0,0,0,.51,3.34A6.52,6.52,0,0,0,2.53,15.64Zm.85,1L3,16.16a5.73,5.73,0,0,1,2.45-1.87,13.34,13.34,0,0,0,3,4.94A9.37,9.37,0,0,1,3.38,16.62Zm6.3,2.73H9.52A12.71,12.71,0,0,1,6,14.05a11.49,11.49,0,0,1,3.66-.61Zm0-6.56a12.47,12.47,0,0,0-3.86.63,12.76,12.76,0,0,1-.47-3.1H9.68Zm0-3.11H5.35a12.76,12.76,0,0,1,.47-3.1,12.47,12.47,0,0,0,3.86.63Zm0-3.12A11.49,11.49,0,0,1,6,6,12.79,12.79,0,0,1,9.52.66h.16Zm7.79-2.2a9.31,9.31,0,0,1,1.88,5.32H15.3a13.08,13.08,0,0,0-.51-3.34A6.52,6.52,0,0,0,17.47,4.36Zm-.86-1a6,6,0,0,1,.43.45,5.74,5.74,0,0,1-2.45,1.88,13.4,13.4,0,0,0-3-4.95A9.26,9.26,0,0,1,16.61,3.39ZM10.32.65h.16A12.78,12.78,0,0,1,14,6a11.81,11.81,0,0,1-3.66.6Zm0,6.56a12.47,12.47,0,0,0,3.86-.63,12.76,12.76,0,0,1,.47,3.1H10.32Zm0,3.11h4.33a12.76,12.76,0,0,1-.47,3.1,12.47,12.47,0,0,0-3.86-.63Zm.16,9h-.16V13.44a11.49,11.49,0,0,1,3.66.61A12.71,12.71,0,0,1,10.48,19.34Zm6.13-2.72a9.31,9.31,0,0,1-5.06,2.61,13.34,13.34,0,0,0,3-4.94A5.73,5.73,0,0,1,17,16.16C16.91,16.31,16.76,16.47,16.61,16.62Zm.86-1a6.52,6.52,0,0,0-2.68-2,13.08,13.08,0,0,0,.51-3.34h4.05A9.31,9.31,0,0,1,17.47,15.64Z"/>
        </symbol>
        <symbol id="icon-work" viewBox="0 0 20 15.14">
            <path d="M12.68,2.43A2.58,2.58,0,0,0,10,0,2.58,2.58,0,0,0,7.32,2.43H0V15.14H20V2.43ZM10,.54a2,2,0,0,1,2.14,1.89H7.86A2,2,0,0,1,10,.54Zm9.46,14.05H.54V7.84H7.3v2.43h5.4V7.84h6.76ZM7.84,9.73V7.84h4.32V9.73ZM19.46,7.3H.54V3H19.46Z"/>
        </symbol>
        <symbol id="icon-education" viewBox="0 0 20 15">
            <path d="M18.5,5.86,20,5.1,10,0,0,5.1l3.85,2v4.18L10,15l6.15-3.76V7.06L18,6.13V8l-.75,1.53h2L18.5,8Zm-2.88,5.08L10,14.38,4.38,10.94V7.33L10,10.19l5.62-2.86ZM10,9.59,1.17,5.1,10,.6l8.83,4.5ZM18.07,9l.17-.34L18.4,9Z"/>
        </symbol>
    </defs>
</svg>