<svg xmlns="http://www.w3.org/2000/svg"
    xmlns:xlink="http://www.w3.org/1999/xlink">
    <defs>
        <symbol id="icon-arrow" viewBox="0 0 20 20">
            <polygon points="18.38 8.38 11.15 15.6 11.15 0 8.85 0 8.85 15.6 1.62 8.38 0 10 10 20 20 10 18.38 8.38"/>
        </symbol>
        <symbol id="icon-home" viewBox="0 0 20 19.72">
            <path d="M10.5859 0.585785L20.5859 10.5858H16.7561V19.841H12.437V14.9049H8.11788V19.841H3.79879V10.5858H0.585938L10.5859 0.585785ZM2.07554 9.96877H4.4158V19.224H7.50087V14.2879H13.054V19.224H16.1391V9.96877H19.0963L10.5859 1.45837L2.07554 9.96877Z"/>
        </symbol>
        <symbol id="icon-globe" viewBox="0 0 20 20">
            <path d="M17.07,2.93A10,10,0,1,0,2.93,17.07,9.93,9.93,0,0,0,10,20h0A10,10,0,0,0,17.07,2.93ZM3.38,3.39A9.32,9.32,0,0,1,8.45.77a13.34,13.34,0,0,0-3,4.94A5.73,5.73,0,0,1,3,3.84C3.09,3.69,3.24,3.53,3.38,3.39Zm-.85,1a6.52,6.52,0,0,0,2.68,2A13.08,13.08,0,0,0,4.7,9.68h-4A9.31,9.31,0,0,1,2.53,4.36Zm0,11.28A9.31,9.31,0,0,1,.65,10.32H4.7a13.08,13.08,0,0,0,.51,3.34A6.52,6.52,0,0,0,2.53,15.64Zm.85,1L3,16.16a5.73,5.73,0,0,1,2.45-1.87,13.34,13.34,0,0,0,3,4.94A9.37,9.37,0,0,1,3.38,16.62Zm6.3,2.73H9.52A12.71,12.71,0,0,1,6,14.05a11.49,11.49,0,0,1,3.66-.61Zm0-6.56a12.47,12.47,0,0,0-3.86.63,12.76,12.76,0,0,1-.47-3.1H9.68Zm0-3.11H5.35a12.76,12.76,0,0,1,.47-3.1,12.47,12.47,0,0,0,3.86.63Zm0-3.12A11.49,11.49,0,0,1,6,6,12.79,12.79,0,0,1,9.52.66h.16Zm7.79-2.2a9.31,9.31,0,0,1,1.88,5.32H15.3a13.08,13.08,0,0,0-.51-3.34A6.52,6.52,0,0,0,17.47,4.36Zm-.86-1a6,6,0,0,1,.43.45,5.74,5.74,0,0,1-2.45,1.88,13.4,13.4,0,0,0-3-4.95A9.26,9.26,0,0,1,16.61,3.39ZM10.32.65h.16A12.78,12.78,0,0,1,14,6a11.81,11.81,0,0,1-3.66.6Zm0,6.56a12.47,12.47,0,0,0,3.86-.63,12.76,12.76,0,0,1,.47,3.1H10.32Zm0,3.11h4.33a12.76,12.76,0,0,1-.47,3.1,12.47,12.47,0,0,0-3.86-.63Zm.16,9h-.16V13.44a11.49,11.49,0,0,1,3.66.61A12.71,12.71,0,0,1,10.48,19.34Zm6.13-2.72a9.31,9.31,0,0,1-5.06,2.61,13.34,13.34,0,0,0,3-4.94A5.73,5.73,0,0,1,17,16.16C16.91,16.31,16.76,16.47,16.61,16.62Zm.86-1a6.52,6.52,0,0,0-2.68-2,13.08,13.08,0,0,0,.51-3.34h4.05A9.31,9.31,0,0,1,17.47,15.64Z"/>
        </symbol>
        <symbol id="icon-work" viewBox="0 0 20 15.14">
            <path d="M12.68,2.43A2.58,2.58,0,0,0,10,0,2.58,2.58,0,0,0,7.32,2.43H0V15.14H20V2.43ZM10,.54a2,2,0,0,1,2.14,1.89H7.86A2,2,0,0,1,10,.54Zm9.46,14.05H.54V7.84H7.3v2.43h5.4V7.84h6.76ZM7.84,9.73V7.84h4.32V9.73ZM19.46,7.3H.54V3H19.46Z"/>
        </symbol>
        <symbol id="icon-education" viewBox="0 0 20 15">
            <path d="M18.5,5.86,20,5.1,10,0,0,5.1l3.85,2v4.18L10,15l6.15-3.76V7.06L18,6.13V8l-.75,1.53h2L18.5,8Zm-2.88,5.08L10,14.38,4.38,10.94V7.33L10,10.19l5.62-2.86ZM10,9.59,1.17,5.1,10,.6l8.83,4.5ZM18.07,9l.17-.34L18.4,9Z"/>
        </symbol>
        <symbol id="icon-html" viewBox="0 0 17.78 20">
            <path d="M0,0,1.62,18l7.25,2,7.29-2L17.78,0ZM14.25,5.89H5.74L6,8.15h8.1l-.61,6.77L8.89,16.18h0L4.32,14.92,4,11.46H6.24l.16,1.76,2.48.66,2.48-.66.26-2.87H3.91L3.3,3.68H14.46Z"/>
        </symbol>
        <symbol id="icon-css" viewBox="0 0 17.78 20">
            <path d="M0,0,1.62,18l7.26,2,7.28-2L17.78,0ZM14.05,8.15,14,8.74l-.52,5.81,0,.38L8.89,16.18h0L4.32,14.93,4,11.46H6.24l.16,1.76,2.48.66h0l2.48-.66.26-2.86H3.91l-.2-2.21h8.1L12,5.89H3.51l-.2-2.21H14.46Z"/>
        </symbol>
        <symbol id="icon-js" viewBox="0 0 20 20">
            <path d="M0,0V20H20V0ZM10.89,15.6a2.55,2.55,0,0,1-2.8,2.83,2.91,2.91,0,0,1-2.82-1.72l1.53-.92c.29.52.56,1,1.21,1s1-.24,1-1.18V9.18h1.88Zm4.44,2.83a3.61,3.61,0,0,1-3.42-1.92l1.52-.88a2.07,2.07,0,0,0,1.86,1.14c.78,0,1.28-.39,1.28-.93s-.52-.87-1.37-1.25l-.47-.2c-1.36-.58-2.26-1.3-2.26-2.83a2.51,2.51,0,0,1,2.75-2.48,2.78,2.78,0,0,1,2.68,1.5l-1.47.94a1.28,1.28,0,0,0-1.21-.81.82.82,0,0,0-.9.81c0,.56.35.79,1.16,1.14l.47.2c1.6.69,2.5,1.39,2.5,3S17.12,18.43,15.33,18.43Z"/>
        </symbol>
        <symbol id="icon-node" viewBox="0 0 17.78 20">
            <path d="M17,4.43,9.67.2A1.58,1.58,0,0,0,8.12.2L.77,4.43A1.52,1.52,0,0,0,0,5.76v8.46a1.55,1.55,0,0,0,.77,1.34L2.7,16.67a3.14,3.14,0,0,0,1.69.46,2,2,0,0,0,2.17-2.29V6.49a.21.21,0,0,0-.21-.21H5.42a.21.21,0,0,0-.21.21v8.34c0,.65-.67,1.29-1.76.75l-2-1.16a.23.23,0,0,1-.11-.2V5.76a.23.23,0,0,1,.11-.2L8.78,1.34a.24.24,0,0,1,.23,0l7.34,4.22a.25.25,0,0,1,.11.21v8.45a.23.23,0,0,1-.11.2L9,18.65a.24.24,0,0,1-.23,0L6.89,17.54a.17.17,0,0,0-.18,0A4.72,4.72,0,0,1,5.6,18c-.12,0-.3.11.07.32l2.45,1.44a1.51,1.51,0,0,0,.77.21h0a1.55,1.55,0,0,0,.78-.21L17,15.56a1.57,1.57,0,0,0,.77-1.34V5.77A1.56,1.56,0,0,0,17,4.43Z"/>
            <path d="M11.16,12.89c-1.95,0-2.37-.49-2.52-1.46a.2.2,0,0,0-.2-.17H7.49a.21.21,0,0,0-.22.21c0,1.23.68,2.7,3.89,2.7h0c2.33,0,3.66-.91,3.66-2.51s-1.07-2-3.33-2.3S9,8.91,9,8.38s.2-1,1.89-1c1.51,0,2.06.32,2.29,1.34a.22.22,0,0,0,.21.16h1a.2.2,0,0,0,.16-.07.23.23,0,0,0,.06-.16c-.15-1.75-1.32-2.56-3.67-2.56-2.09,0-3.34.88-3.34,2.36s1.24,2,3.25,2.24c2.41.24,2.59.59,2.59,1.06C13.36,12.54,12.71,12.89,11.16,12.89Z"/>
        </symbol>
        <symbol id="icon-express" viewBox="0 0 20 4.44">
            <path d="M6.2,4.44V.09h.24V.77L6.52.68A1.2,1.2,0,0,1,7.59,0,1.28,1.28,0,0,1,8.83.68a2.07,2.07,0,0,1,.05,1.95,1.34,1.34,0,0,1-1.47.71,1.2,1.2,0,0,1-1-.63V4.44Zm.24-2.81c0,.21,0,.36.06.51a1.07,1.07,0,0,0,1,1,1.11,1.11,0,0,0,1.22-.7,1.85,1.85,0,0,0,0-1.56A1.1,1.1,0,0,0,7.51.23a1.08,1.08,0,0,0-1,.79A6,6,0,0,0,6.44,1.63Z"/>
            <path d="M13.94,2.22a1.27,1.27,0,0,1-1.25,1.13A1.4,1.4,0,0,1,11.15,2a2.21,2.21,0,0,1,.2-1.21A1.35,1.35,0,0,1,12.76,0,1.29,1.29,0,0,1,13.9,1a5.84,5.84,0,0,1,.11.73H11.4a1.25,1.25,0,0,0,.85,1.37,1.12,1.12,0,0,0,1.42-.74C13.71,2.2,13.8,2.18,13.94,2.22ZM11.4,1.5h2.34A1.19,1.19,0,0,0,12.64.23,1.22,1.22,0,0,0,11.4,1.5Z"/>
            <path d="M14.42,2.24h.23a1,1,0,0,0,.54.79,1.43,1.43,0,0,0,1.23,0,.54.54,0,0,0,.32-.54A.5.5,0,0,0,16.4,2c-.25-.1-.52-.15-.77-.23a7.41,7.41,0,0,1-.79-.28.75.75,0,0,1,0-1.24,1.67,1.67,0,0,1,1.58,0,.83.83,0,0,1,.42.84h-.2s0,0,0,0c0-.62-.56-.81-1.12-.76a1.46,1.46,0,0,0-.49.15.49.49,0,0,0-.28.48.48.48,0,0,0,.33.45c.25.09.51.15.76.22l.62.16a.74.74,0,0,1,.5.66.77.77,0,0,1-.42.8A1.7,1.7,0,0,1,14.74,3,1.05,1.05,0,0,1,14.42,2.24Z"/>
            <path d="M19.89,1h-.22s0-.05,0-.08a.7.7,0,0,0-.57-.67,1.42,1.42,0,0,0-.91,0,.55.55,0,0,0-.4.53.5.5,0,0,0,.39.51l1,.25a1.58,1.58,0,0,1,.31.09.81.81,0,0,1,.49,1,.78.78,0,0,1-.44.47,1.81,1.81,0,0,1-1.46,0,1,1,0,0,1-.6-1h.21a1.18,1.18,0,0,0,1.39.91,1.4,1.4,0,0,0,.4-.16.59.59,0,0,0,.31-.54.51.51,0,0,0-.34-.5c-.25-.09-.52-.14-.78-.22a7.41,7.41,0,0,1-.79-.28.75.75,0,0,1,0-1.23,1.63,1.63,0,0,1,1.6,0A.83.83,0,0,1,19.89,1Z"/>
            <path d="M5.81,3.27a.38.38,0,0,1-.46-.18c-.26-.39-.55-.76-.83-1.15L4.4,1.78c-.33.45-.67.87-1,1.32A.37.37,0,0,1,3,3.27L4.24,1.6,3.08.09a.4.4,0,0,1,.46.16c.27.39.57.77.87,1.17C4.71,1,5,.65,5.28.26A.33.33,0,0,1,5.71.1L5.26.69c-.2.27-.4.53-.61.79a.16.16,0,0,0,0,.23h0Z"/>
            <path d="M11.12.07V.3A1.17,1.17,0,0,0,9.87,1.39V3.27H9.64V.09h.22V.74A1.37,1.37,0,0,1,11.12.07Z"/>
            <path d="M0,1.58a4.42,4.42,0,0,1,.1-.5A1.4,1.4,0,0,1,2.3.29a1.62,1.62,0,0,1,.56,1.44H.27A1.21,1.21,0,0,0,1.92,3.05a1,1,0,0,0,.62-.69c0-.16.13-.19.29-.14a1.27,1.27,0,0,1-.63.95A1.51,1.51,0,0,1,.43,3,1.63,1.63,0,0,1,0,2a.76.76,0,0,0,0-.16Zm.27-.07H2.61A1.17,1.17,0,0,0,1.5.24,1.21,1.21,0,0,0,.27,1.5Z"/>
        </symbol>
        <symbol id="icon-mongo" viewBox="0 0 8.89 20">
            <path d="M8.72,7.94C7.68,3.3,5.22,1.78,5,1.19A6.13,6.13,0,0,1,4.37.05v0a.46.46,0,0,0,0-.09,1.22,1.22,0,0,1-.42,1A11.07,11.07,0,0,0,0,9.3a10,10,0,0,0,4,8.2,7.18,7.18,0,0,1,.33,2.32L4.9,20a9.65,9.65,0,0,1,0-2.1,1.29,1.29,0,0,1,.27-.55,7.29,7.29,0,0,0,.64-.53h0A9.56,9.56,0,0,0,8.72,7.94Z"/>
        </symbol>
        <symbol id="icon-react" viewBox="0 0 20 17.78">
            <circle cx="10" cy="8.87" r="1.79"/>
            <path d="M16.44,5.76l-.64-.2c0-.15.07-.3.1-.44C16.4,2.72,16,.84,15,.23s-2.7,0-4.47,1.52c-.17.15-.34.3-.5.46L9.68,1.9C7.84.27,6-.36,5,.25S3.61,2.58,4.06,4.89c0,.21.1.43.15.66l-.74.23C1.3,6.54,0,7.69,0,8.87s1.4,2.46,3.66,3.24l.54.16c-.06.24-.11.48-.16.72-.43,2.26-.07,4,1,4.54a1.9,1.9,0,0,0,1,.24A6.15,6.15,0,0,0,9.62,16L10,15.6c.18.17.36.34.54.49a5.89,5.89,0,0,0,3.47,1.69,1.8,1.8,0,0,0,.94-.24c1.07-.61,1.44-2.44,1-4.78q0-.26-.12-.54l.38-.11c2.33-.77,3.78-2,3.78-3.24S18.67,6.53,16.44,5.76ZM14.07.86a1,1,0,0,1,.48.11c.58.33,1,1.71.51,4,0,.13-.06.26-.09.4a21,21,0,0,0-2.67-.42,20,20,0,0,0-1.69-2.11,6,6,0,0,1,.46-.42A5.24,5.24,0,0,1,14.07.86ZM12.79,10.5c-.31.54-.63,1.06-1,1.54-.59,0-1.2.07-1.83.07s-1.23,0-1.81-.06c-.34-.5-.67-1-1-1.55s-.59-1.07-.85-1.61c.26-.54.54-1.08.85-1.61s.63-1,1-1.54c.6,0,1.21-.07,1.82-.07s1.23,0,1.82.07c.33.49.66,1,1,1.54s.6,1.08.86,1.6C13.39,9.41,13.1,10,12.79,10.5Zm1.32-.64a17.82,17.82,0,0,1,.67,1.76c-.58.13-1.2.24-1.86.32.2-.33.41-.67.61-1S13.93,10.22,14.11,9.86ZM10,14.37a17.41,17.41,0,0,1-1.2-1.43L10,13c.41,0,.81,0,1.21,0A16.54,16.54,0,0,1,10,14.37ZM7.1,12c-.65-.07-1.27-.17-1.84-.29.18-.57.4-1.16.65-1.76.18.34.36.69.56,1ZM5.91,7.89c-.25-.59-.46-1.17-.64-1.73.57-.12,1.18-.23,1.81-.31-.21.33-.41.66-.61,1h0C6.27,7.2,6.09,7.54,5.91,7.89ZM10,3.43a15.83,15.83,0,0,1,1.17,1.42c-.39,0-.78,0-1.18,0h0q-.6,0-1.17,0A17.09,17.09,0,0,1,10,3.43Zm3.52,3.42c-.2-.34-.4-.67-.61-1,.63.08,1.25.19,1.82.32-.17.55-.39,1.13-.64,1.72C13.92,7.55,13.73,7.2,13.53,6.85ZM4.9,4.72C4.49,2.6,4.87,1.3,5.4,1A1.07,1.07,0,0,1,5.91.88a5.49,5.49,0,0,1,3.2,1.66l.3.28a20.84,20.84,0,0,0-1.7,2.11A19.4,19.4,0,0,0,5,5.34C5,5.13,4.94,4.92,4.9,4.72Zm-1,6.58C1.82,10.58.85,9.53.85,8.87s.9-1.59,2.9-2.28l.69-.22a19.46,19.46,0,0,0,1,2.52,20.61,20.61,0,0,0-1,2.56Zm5.13,4C7.37,16.81,6,17.13,5.42,16.79s-.93-1.56-.54-3.64c0-.22.09-.44.15-.67a20.19,20.19,0,0,0,2.69.39A21.1,21.1,0,0,0,9.44,15Zm6.07-2.41c.43,2.19,0,3.54-.56,3.87s-1.83,0-3.44-1.35l-.5-.46a20.83,20.83,0,0,0,1.68-2.13,20.42,20.42,0,0,0,2.7-.42ZM16,11.3l-.34.1a19.89,19.89,0,0,0-1-2.52,20.41,20.41,0,0,0,1-2.5l.6.19c2,.7,3,1.69,3,2.3S18.14,10.57,16,11.3Z"/>
        </symbol>
        <symbol id="icon-git" viewBox="0 0 20 20">
            <path d="M19.62,9.11h0L10.89.38a1.27,1.27,0,0,0-1.82,0L7.26,2.19l2.3,2.3a1.53,1.53,0,0,1,1.93,2l2.22,2.22A1.51,1.51,0,0,1,15.29,9a1.53,1.53,0,1,1-2.16,2.17,1.52,1.52,0,0,1-.34-1.67L10.72,7.45V12.9a1.42,1.42,0,0,1,.41.28,1.53,1.53,0,1,1-2.17,0,1.81,1.81,0,0,1,.5-.33V7.36A1.64,1.64,0,0,1,9,7a1.53,1.53,0,0,1-.33-1.67L6.36,3.08l-6,6a1.27,1.27,0,0,0,0,1.82l8.73,8.73a1.27,1.27,0,0,0,1.82,0l8.69-8.69A1.27,1.27,0,0,0,19.62,9.11Z"/>
        </symbol>
        <symbol id="icon-github" viewBox="0 0 21 20">
            <path d="M10.29,0A10.25,10.25,0,0,0,7,20c.52.09.71-.22.71-.49s0-1,0-1.91c-2.59.48-3.26-.62-3.46-1.2a3.7,3.7,0,0,0-1.06-1.45c-.36-.19-.87-.67,0-.68A2.05,2.05,0,0,1,4.78,15.3a2.21,2.21,0,0,0,3,.85,2.15,2.15,0,0,1,.65-1.37c-2.28-.26-4.68-1.14-4.68-5.07A4,4,0,0,1,4.81,7a3.72,3.72,0,0,1,.1-2.72s.86-.27,2.83,1a9.88,9.88,0,0,1,5.14,0c2-1.33,2.83-1,2.83-1A3.62,3.62,0,0,1,15.81,7a4,4,0,0,1,1.06,2.75c0,3.94-2.41,4.81-4.69,5.07a2.42,2.42,0,0,1,.69,1.89c0,1.38,0,2.48,0,2.82s.19.59.7.49A10.25,10.25,0,0,0,10.29,0Z"/>
        </symbol>
        <symbol id="icon-sass" viewBox="0 0 20 15">
            <path d="M17.22,8.62A4.2,4.2,0,0,0,15.41,9,3.87,3.87,0,0,1,15,8.1a2.49,2.49,0,0,1,0-.78,5.92,5.92,0,0,1,.24-.86s-.05-.2-.45-.21-.75.08-.79.18a4.42,4.42,0,0,0-.17.6,13.75,13.75,0,0,1-1.22,2.35,2.51,2.51,0,0,1-.28-.68,2.56,2.56,0,0,1,0-.79c.05-.34.25-.82.24-.85s0-.21-.44-.22-.75.08-.79.19-.09.35-.17.59S10,10,9.78,10.6c-.13.29-.24.52-.32.68h0l0,0-.11.21h0c-.05.1-.11.19-.14.19a1.25,1.25,0,0,1,0-.62c.15-.76.49-1.93.49-2s.06-.23-.23-.34a.38.38,0,0,0-.41.07s0,.07,0,.07.31-1.33-.61-1.33a2.76,2.76,0,0,0-1.77,1.2l-1.34.74-.65.35,0,0c-1.12-1.2-3.19-2-3.1-3.65,0-.58.23-2.12,4-4C8.55.7,11,1.12,11.42,2.05c.6,1.33-1.31,3.8-4.49,4.15a2.39,2.39,0,0,1-2-.5c-.17-.19-.2-.2-.26-.16s0,.22,0,.31a1.92,1.92,0,0,0,1.15.91,6.16,6.16,0,0,0,3.73-.37c1.92-.75,3.43-2.82,3-4.56S9.16-.51,6.39.48a13.79,13.79,0,0,0-4.7,2.7C.16,4.6-.08,5.84,0,6.36c.35,1.84,2.89,3,3.91,3.93l-.14.08c-.51.25-2.44,1.26-2.93,2.33s.09,2.08.51,2.2a3.14,3.14,0,0,0,3.37-1.36A3.35,3.35,0,0,0,5,10.43s0,0,0,0l.4-.24.73-.41a5.18,5.18,0,0,0-.26,1.33A2.79,2.79,0,0,0,6.49,13a.67.67,0,0,0,.48.16c.43,0,.63-.36.84-.79s.5-1.12.5-1.12S8,12.9,8.82,12.9c.29,0,.59-.38.72-.57h0a.11.11,0,0,0,0,0l0-.07h0c.12-.2.38-.67.77-1.44.5-1,1-2.23,1-2.23a5.75,5.75,0,0,0,.19.8,7.58,7.58,0,0,0,.42.94l-.19.25h0a4.79,4.79,0,0,1-.31.39,12.54,12.54,0,0,0-.94,1.17.34.34,0,0,0,.09.44.82.82,0,0,0,.49.08,2.59,2.59,0,0,0,.74-.17,2.74,2.74,0,0,0,.63-.33,1.41,1.41,0,0,0,.6-1.25,2.49,2.49,0,0,0-.23-.88L13,9.84a17.14,17.14,0,0,0,1.1-1.9,5.66,5.66,0,0,0,.19.81,5,5,0,0,0,.35.8,3.43,3.43,0,0,0-1.06,1.38c-.23.67-.05,1,.29,1a1,1,0,0,0,.53-.11,2.55,2.55,0,0,0,.67-.35,1.51,1.51,0,0,0,.75-1.24,2.42,2.42,0,0,0-.17-.73,3.93,3.93,0,0,1,1.94-.22c1.74.21,2.08,1.29,2,1.75a1.19,1.19,0,0,1-.55.78c-.12.08-.16.1-.15.16s.07.07.17.06A1.37,1.37,0,0,0,20,10.86C20.05,9.78,19,8.61,17.22,8.62ZM3.81,13.15c-.58.62-1.38.86-1.73.66s-.23-1.14.48-1.81a9.48,9.48,0,0,1,1.36-1l.36-.22,0,0h0l.08-.05A2.52,2.52,0,0,1,3.81,13.15ZM8,10.29c-.2.49-.62,1.74-.88,1.67s-.35-1,0-2a4.6,4.6,0,0,1,.68-1.25c.32-.35.66-.47.75-.32A6.91,6.91,0,0,1,8,10.29ZM11.48,12c-.09,0-.17.07-.21.05s0-.07,0-.07.44-.47.61-.68l.34-.44v0C12.26,11.42,11.72,11.79,11.48,12Zm2.67-.61c-.06-.05-.05-.19.16-.65a2.48,2.48,0,0,1,.59-.77,1.06,1.06,0,0,1,.06.34A1.11,1.11,0,0,1,14.15,11.34Z"/>
        </symbol>
        <symbol id="icon-figma" viewBox="0 0 13.33 20">
            <path d="M10,6.67A3.34,3.34,0,0,0,10,0H3.33a3.34,3.34,0,0,0,0,6.67,3.33,3.33,0,1,0,0,6.66,3.34,3.34,0,1,0,3.34,3.34v-10Z"/>
            <circle cx="10" cy="10" r="3.33"/>
        </symbol>
        <symbol id="icon-ai" viewBox="0 0 20 19.5">
            <path d="M8.75,8.66l-.24-.77c-.09-.26-.16-.5-.23-.74S8.16,6.7,8.1,6.5h0A8,8,0,0,1,7.8,7.57c-.13.4-.25.82-.38,1.24s-.25.81-.37,1.16H9.17c-.05-.17-.12-.38-.2-.59S8.82,8.91,8.75,8.66Z"/>
            <path d="M16.46,0H3.54A3.53,3.53,0,0,0,0,3.54V16A3.53,3.53,0,0,0,3.54,19.5H16.46A3.53,3.53,0,0,0,20,16V3.54A3.53,3.53,0,0,0,16.46,0ZM12.22,13.74H10.48a.12.12,0,0,1-.13-.09l-.68-2H6.57l-.64,1.95a.13.13,0,0,1-.15.12H4.21q-.13,0-.09-.15L6.8,5.87c0-.09,0-.18.08-.28a2.41,2.41,0,0,0,0-.54S7,5,7,5H9.16c.06,0,.1,0,.11.06l3,8.59C12.33,13.7,12.31,13.74,12.22,13.74Zm2.88-.09c0,.09,0,.13-.11.13H13.36a.12.12,0,0,1-.13-.13V7.23a.1.1,0,0,1,.11-.11H15a.1.1,0,0,1,.11.11Zm-.18-7.53a1,1,0,0,1-.75.3,1,1,0,0,1-1-1.06,1,1,0,0,1,.3-.74,1,1,0,0,1,.74-.3,1,1,0,0,1,.76.3,1.1,1.1,0,0,1,.28.74A1.07,1.07,0,0,1,14.92,6.12Z"/>
        </symbol>
        <symbol id="icon-logo" viewBox="0 0 10 20">
            <polygon points="0.94 4.94 2 6 0.94 7.06 0.94 6.27 0 5.33 0 9.33 3.33 6 0 2.67 0 4 0.94 4.94"/><polygon points="4 8 2 10 4 12 5.53 10.47 3.8 10.47 3.33 10 3.8 9.53 6.86 9.53 7.33 10 4 13.33 0.67 10 4 6.67 5.92 8.59 4.59 8.59 4 8"/><polygon points="0 10.67 0 14.67 0.94 13.73 0.94 12.94 2 14 0 16 0 19.06 0 20 0.94 19.06 0.94 16.39 3.33 14 0 10.67"/><polygon points="0 1.33 8.67 10 1.88 16.79 1.88 18.12 10 10 0 0 0 1.33"/>
        </symbol>
    </defs>
</svg>